<?xml version="1.0" encoding="UTF-8"?>
<svg id="_03_Ebene" data-name="03_Ebene" xmlns="http://www.w3.org/2000/svg" viewBox="0 0 546.506675 1080">
  <defs>
    <style>
      .cls-1, .cls-2 {
        fill: #fff;
      }

      .cls-1, .cls-3, .cls-4 {
        stroke: #0036ff;
        stroke-linejoin: round;
        stroke-width: 3px;
      }

      .cls-3 {
        fill: none;
      }

      .cls-5, .cls-4 {
        fill: #0036ff;
      }
    </style>
  </defs>
  <g>
    <g>
      <path class="cls-5" d="M277.072239,548.445564h-84.706055c-59.294434-79.058594,59.294434-158.117188,0-237.175781h84.706055c59.294434,79.058594-59.294434,158.117188,0,237.175781Z"/>
      <path class="cls-4" d="M277.072239,548.445564h-84.706055c-59.294434-79.058594,59.294434-158.117188,0-237.175781h84.706055c59.294434,79.058594-59.294434,158.117188,0,237.175781Z"/>
    </g>
    <g>
      <path class="cls-5" d="M424.873997,429.857674h-84.706055c59.294434-88.95166-59.294434-177.903809,0-266.855469h84.706055c-59.294434,88.95166,59.294434,177.903809,0,266.855469Z"/>
      <path class="cls-4" d="M424.873997,429.857674h-84.706055c59.294434-88.95166-59.294434-177.903809,0-266.855469h84.706055c-59.294434,88.95166,59.294434,177.903809,0,266.855469Z"/>
    </g>
    <g>
      <path class="cls-5" d="M572.675267,503.529304h-84.705566c-44.046875-79.05835,44.046875-158.11792,0-237.176025h84.705566c44.046875,79.058594-44.046875,158.117188,0,237.176025Z"/>
      <path class="cls-4" d="M572.675267,503.529304h-84.705566c-44.046875-79.05835,44.046875-158.11792,0-237.176025h84.705566c44.046875,79.058594-44.046875,158.117188,0,237.176025Z"/>
    </g>
    <rect class="cls-4" x="234.719233" y="965.094981" width="326.898516" height="68.510866"/>
    <path class="cls-4" d="M700.894399,676.975484l-7.975586-145.547363H104.062856l-8.547363,144.531738c-1.489746,25.192139.24707,50.471436,5.169434,75.2229l5.98584,30.102295c16.234863,81.641602,65.131836,149.812988,131.458008,192.047852,106.696777,24.736572,213.399414,24.733398,320.108887,0,66.529297-42.365723,115.514648-110.824951,131.597656-192.772705l5.959961-30.366455c4.72998-24.100098,6.442871-48.695312,5.099121-73.218262Z"/>
  </g>
  <g>
    <g>
      <path class="cls-2" d="M287.072239,538.445564h-84.706055c-59.294434-79.058594,59.294434-158.117188,0-237.175781h84.706055c59.294434,79.058594-59.294434,158.117188,0,237.175781Z"/>
      <path class="cls-3" d="M287.072239,538.445564h-84.706055c-59.294434-79.058594,59.294434-158.117188,0-237.175781h84.706055c59.294434,79.058594-59.294434,158.117188,0,237.175781Z"/>
    </g>
    <g>
      <path class="cls-2" d="M434.873997,419.857674h-84.706055c59.294434-88.95166-59.294434-177.903809,0-266.855469h84.706055c-59.294434,88.95166,59.294434,177.903809,0,266.855469Z"/>
      <path class="cls-3" d="M434.873997,419.857674h-84.706055c59.294434-88.95166-59.294434-177.903809,0-266.855469h84.706055c-59.294434,88.95166,59.294434,177.903809,0,266.855469Z"/>
    </g>
    <g>
      <path class="cls-2" d="M582.675267,493.529304h-84.705566c-44.046875-79.05835,44.046875-158.11792,0-237.176025h84.705566c44.046875,79.058594-44.046875,158.117188,0,237.176025Z"/>
      <path class="cls-3" d="M582.675267,493.529304h-84.705566c-44.046875-79.05835,44.046875-158.11792,0-237.176025h84.705566c44.046875,79.058594-44.046875,158.117188,0,237.176025Z"/>
    </g>
    <rect class="cls-1" x="244.719233" y="955.094981" width="326.898516" height="68.510866"/>
    <path class="cls-1" d="M710.894399,666.975484l-7.975586-145.547363H114.062856l-8.547363,144.531738c-1.489746,25.192139.24707,50.471436,5.169434,75.2229l5.98584,30.102295c16.234863,81.641602,65.131836,149.812988,131.458008,192.047852,106.696777,24.736572,213.399414,24.733398,320.108887,0,66.529297-42.365723,115.514648-110.824951,131.597656-192.772705l5.959961-30.366455c4.72998-24.100098,6.442871-48.695312,5.099121-73.218262Z"/>
  </g>
</svg>