<?xml version="1.0" encoding="UTF-8"?>
<svg id="_03_Ebene" data-name="03_Ebene" xmlns="http://www.w3.org/2000/svg" viewBox="0 0 546.506675 1080">
  <defs>
    <style>
      .cls-1 {
        fill: #0036ff;
      }

      .cls-1, .cls-2 {
        stroke: #0036ff;
        stroke-miterlimit: 10;
        stroke-width: 3px;
      }

      .cls-2 {
        fill: #fff;
      }
    </style>
  </defs>
  <path class="cls-1" d="M442.14123,722.260769l79.101776-78.358485c2.020655-15.066354-3.342927-24.949928-18.643762-27.857904l-59.889852,32.270555s.380885-72.425253.166052-107.952896l72.016846-59.97983-247.602496-1.15164,61.815997,61.131469c-1.76357,193.75134-8.436796,483.316934-8.436796,483.316934h130.643244l-9.17101-301.418204Z"/>
  <path class="cls-1" d="M744.973731,413.586521c0-71.714844-59.908203-130.777344-136.972656-138.585938-36.869141-66.785645-113.210938-112.666992-201.425781-112.666992-71.847656,0-135.820801,30.434082-177.005371,77.811035-2.19873-.305664-4.44043-.475098-6.723145-.475098-26.765625,0-48.463379,21.697754-48.463379,48.462891,0,1.50293.078613,2.986816.212402,4.455078-43.740234,5.496094-77.634277,44.189453-77.634277,91.11084,0,33.231934,17.001465,62.338379,42.460938,78.446777-1.570801,7.980469-2.39209,16.194824-2.39209,24.583008,0,77.02832,69.111328,139.472168,154.363281,139.472168,51.357422,0,96.848633-22.66748,124.910156-57.526855,5.823242-.224121,11.581055-.671875,17.28125-1.287598,5.983398,47.726074,46.705078,84.648438,96.053711,84.648438,53.467773,0,96.811523-43.344238,96.811523-96.812012,0-1.985352-.067383-3.95459-.18457-5.910645,68.060547-14.541504,118.708008-69.785645,118.708008-135.725098Z"/>
  <path class="cls-2" d="M452.14123,712.260769l79.101776-78.358485c2.020655-15.066354-3.342927-24.949928-18.643762-27.857904l-59.889852,32.270555s.380885-72.425253.166052-107.952896l72.016846-59.97983-247.602496-1.15164,61.815997,61.131469c-1.76357,193.75134-8.436796,483.316934-8.436796,483.316934h130.643244l-9.17101-301.418204Z"/>
  <path class="cls-2" d="M754.973731,403.586521c0-71.714844-59.908203-130.777344-136.972656-138.585938-36.869141-66.785645-113.210938-112.666992-201.425781-112.666992-71.847656,0-135.820801,30.434082-177.005371,77.811035-2.19873-.305664-4.44043-.475098-6.723145-.475098-26.765625,0-48.463379,21.697754-48.463379,48.462891,0,1.50293.078613,2.986816.212402,4.455078-43.740234,5.496094-77.634277,44.189453-77.634277,91.11084,0,33.231934,17.001465,62.338379,42.460938,78.446777-1.570801,7.980469-2.39209,16.194824-2.39209,24.583008,0,77.02832,69.111328,139.472168,154.363281,139.472168,51.357422,0,96.848633-22.66748,124.910156-57.526855,5.823242-.224121,11.581055-.671875,17.28125-1.287598,5.983398,47.726074,46.705078,84.648438,96.053711,84.648438,53.467773,0,96.811523-43.344238,96.811523-96.812012,0-1.985352-.067383-3.95459-.18457-5.910645,68.060547-14.541504,118.708008-69.785645,118.708008-135.725098Z"/>
</svg>